<svg width="524" height="524" viewBox="0 0 524 524" fill="none" xmlns="http://www.w3.org/2000/svg">
<path d="M0 272.156C0 199.976 28.6735 130.752 79.7128 79.7128C130.752 28.6735 199.976 0 272.156 0H366.364V136.078H272.156C236.066 136.078 201.454 150.415 175.935 175.935C150.415 201.454 136.078 236.066 136.078 272.156V366.364H0V272.156Z" fill="#0B0D0D"/>
<path d="M523.378 251.221C523.378 323.401 494.704 392.625 443.665 443.665C392.626 494.704 323.402 523.378 251.221 523.378H157.013V387.299H251.221C287.311 387.299 321.923 372.962 347.443 347.443C372.963 321.923 387.299 287.311 387.299 251.221V157.013H523.378V251.221Z" fill="#0B0D0D"/>
<path d="M512.91 0H397.767C391.986 0 387.299 4.68648 387.299 10.4676V125.611C387.299 131.392 391.986 136.078 397.767 136.078H512.91C518.691 136.078 523.378 131.392 523.378 125.611V10.4676C523.378 4.68648 518.691 0 512.91 0Z" fill="#FF7A1A"/>
<path d="M125.611 387.3H10.4676C4.68648 387.3 0 391.986 0 397.767V512.911C0 518.692 4.68648 523.378 10.4676 523.378H125.611C131.392 523.378 136.078 518.692 136.078 512.911V397.767C136.078 391.986 131.392 387.3 125.611 387.3Z" fill="#3A3A40"/>
</svg>
